<?xml version="1.0" standalone="no"?>
<!DOCTYPE svg PUBLIC "-//W3C//DTD SVG 20010904//EN"
 "http://www.w3.org/TR/2001/REC-SVG-20010904/DTD/svg10.dtd">
<svg version="1.0" xmlns="http://www.w3.org/2000/svg"
 width="320.000000pt" height="320.000000pt" viewBox="0 0 320.000000 320.000000"
 preserveAspectRatio="xMidYMid meet">
<metadata>
Created by potrace 1.14, written by Peter Selinger 2001-2017
</metadata>
<g transform="translate(0.000000,320.000000) scale(0.100000,-0.100000)"
fill="#000000" stroke="none">
<path d="M0 1600 l0 -1600 1600 0 1600 0 0 1600 0 1600 -1600 0 -1600 0 0
-1600z m1650 1525 c0 -20 5 -25 25 -25 l25 0 0 -725 0 -725 25 0 c20 0 25 -5
25 -25 0 -20 5 -25 25 -25 20 0 25 -5 25 -25 0 -20 5 -25 25 -25 20 0 25 -5
25 -25 0 -20 5 -25 25 -25 20 0 25 -5 25 -25 0 -20 5 -25 25 -25 20 0 25 -5
25 -25 0 -20 5 -25 25 -25 20 0 25 -5 25 -25 0 -20 5 -25 25 -25 20 0 25 -5
25 -25 0 -20 5 -25 25 -25 20 0 25 -5 25 -25 0 -20 5 -25 25 -25 20 0 25 -5
25 -25 0 -20 5 -25 25 -25 20 0 25 -5 25 -25 0 -20 5 -25 25 -25 20 0 25 -5
25 -25 0 -20 5 -25 25 -25 20 0 25 -5 25 -25 l0 -25 400 0 400 0 0 -25 c0 -20
5 -25 25 -25 l25 0 0 -450 0 -450 -25 0 c-20 0 -25 -5 -25 -25 l0 -25 -450 0
-450 0 0 25 c0 20 -5 25 -25 25 l-25 0 0 450 0 450 -25 0 c-20 0 -25 5 -25 25
0 20 -5 25 -25 25 -20 0 -25 5 -25 25 0 20 -5 25 -25 25 -20 0 -25 5 -25 25 0
20 -5 25 -25 25 -20 0 -25 5 -25 25 0 20 -5 25 -25 25 -20 0 -25 5 -25 25 0
20 -5 25 -25 25 -20 0 -25 5 -25 25 0 20 -5 25 -25 25 -20 0 -25 5 -25 25 0
20 -5 25 -25 25 -20 0 -25 5 -25 25 0 20 -5 25 -25 25 -20 0 -25 5 -25 25 0
20 -5 25 -25 25 -20 0 -25 5 -25 25 l0 25 -775 0 -775 0 0 25 c0 20 -5 25 -25
25 l-25 0 0 775 0 775 25 0 c20 0 25 5 25 25 l0 25 775 0 775 0 0 -25z m1450
0 c0 -20 5 -25 25 -25 l25 0 0 -325 0 -325 -25 0 c-20 0 -25 -5 -25 -25 l0
-25 -325 0 -325 0 0 25 c0 20 -5 25 -25 25 l-25 0 0 325 0 325 25 0 c20 0 25
5 25 25 l0 25 325 0 325 0 0 -25z"/>
<path d="M250 2325 l0 -625 625 0 625 0 0 625 0 625 -625 0 -625 0 0 -625z
m400 500 c0 -20 5 -25 25 -25 l25 0 0 -100 0 -100 -25 0 c-20 0 -25 -5 -25
-25 l0 -25 -150 0 -150 0 0 25 c0 20 -5 25 -25 25 l-25 0 0 100 0 100 25 0
c20 0 25 5 25 25 l0 25 150 0 150 0 0 -25z"/>
<path d="M2350 550 l0 -300 300 0 300 0 0 300 0 300 -300 0 -300 0 0 -300z
m200 225 c0 -20 5 -25 25 -25 23 0 25 -3 25 -50 0 -47 -2 -50 -25 -50 -20 0
-25 -5 -25 -25 0 -23 -3 -25 -50 -25 -47 0 -50 2 -50 25 0 20 -5 25 -25 25
-23 0 -25 3 -25 50 0 47 2 50 25 50 20 0 25 5 25 25 0 23 3 25 50 25 47 0 50
-2 50 -25z"/>
<path d="M2600 2775 l0 -175 175 0 175 0 0 175 0 175 -175 0 -175 0 0 -175z"/>
</g>
</svg>
